<svg width="60" height="60" viewBox="0 0 60 60" fill="none" xmlns="http://www.w3.org/2000/svg">
<path d="M29.5 5C15.7146 5 4.5 16.2146 4.5 30C4.5 43.7854 15.7146 55 29.5 55C43.2854 55 54.5 43.7854 54.5 30C54.5 16.2146 43.2854 5 29.5 5ZM29.5 52.9167C16.8646 52.9167 6.58333 42.6354 6.58333 30C6.58333 17.3646 16.8646 7.08334 29.5 7.08334C42.1354 7.08334 52.4167 17.3646 52.4167 30C52.4167 42.6354 42.1354 52.9167 29.5 52.9167Z" fill="#E15151"/>
<path d="M21.3979 20.8562C21.1312 20.8562 20.8646 20.9582 20.6604 21.1603C20.2542 21.5666 20.2542 22.227 20.6604 22.6332L36.8646 38.8374C37.2708 39.2437 37.9312 39.2437 38.3375 38.8374C38.7437 38.4312 38.7437 37.7707 38.3375 37.3645L22.1333 21.1603C21.9312 20.9582 21.6646 20.8562 21.3979 20.8562Z" fill="#E15151"/>
<path d="M37.6021 20.8565C37.3354 20.8565 37.0687 20.9586 36.8646 21.1607L20.6604 37.3669C20.2542 37.7732 20.2542 38.4336 20.6604 38.8398C21.0667 39.2461 21.7271 39.2461 22.1333 38.8398L38.3375 22.6357C38.7437 22.2294 38.7437 21.569 38.3375 21.1628C38.1354 20.9586 37.8687 20.8565 37.6021 20.8565Z" fill="#E15151"/>
</svg>
